<?xml version="1.0" encoding="utf-8"?>
<!-- Generator: Adobe Illustrator 27.6.1, SVG Export Plug-In . SVG Version: 6.00 Build 0)  -->
<svg version="1.1" id="Layer_2_00000143610145315213050730000007788459543779922304_"
	 xmlns="http://www.w3.org/2000/svg" xmlns:xlink="http://www.w3.org/1999/xlink" x="0px" y="0px" viewBox="0 0 297.1 50.1"
	 style="enable-background:new 0 0 297.1 50.1;" xml:space="preserve">
<style type="text/css">
	.st0{fill:#4E2D83;}
	.st1{fill:#231F20;stroke:#231F20;stroke-miterlimit:10;}
	.st2{fill:#231F20;}
	.st3{fill:#FFFFFF;}
	.st4{fill:none;stroke:#231F20;stroke-width:4;stroke-miterlimit:10;}
</style>
<path class="st0" d="M18.8,34.7c0-1.4-0.5-2.5-1.6-3.2c-1-0.8-2.9-1.4-5.5-2c-2.6-0.6-4.7-1.2-6.2-2c-1.5-0.8-2.7-1.7-3.4-2.8
	S1,22.4,1,20.9c0-2.5,1-4.5,3.1-6.3s4.7-2.6,8-2.6c3.4,0,6.2,0.9,8.3,2.6c2.1,1.8,3.2,4,3.2,6.8h-5.2c0-1.4-0.6-2.6-1.8-3.6
	c-1.2-1-2.7-1.5-4.5-1.5s-3.3,0.4-4.4,1.2c-1.1,0.8-1.6,1.9-1.6,3.2c0,1.2,0.5,2.2,1.5,2.8c1,0.6,2.8,1.2,5.3,1.8
	c2.6,0.6,4.6,1.3,6.2,2.1c1.6,0.8,2.8,1.8,3.5,2.9c0.8,1.1,1.2,2.5,1.2,4.1c0,2.7-1.1,4.8-3.2,6.5c-2.1,1.6-4.9,2.4-8.4,2.4
	c-2.4,0-4.5-0.4-6.4-1.3c-1.9-0.9-3.3-2-4.4-3.6c-1-1.5-1.6-3.2-1.6-5h5.1c0.1,1.7,0.8,3.1,2.1,4.1c1.3,1,3,1.5,5.1,1.5
	c1.9,0,3.5-0.4,4.7-1.2S18.8,36.1,18.8,34.7L18.8,34.7z"/>
<path class="st0" d="M42.7,39.1c1.8,0,3.4-0.6,4.8-1.7c1.4-1.1,2.1-2.5,2.3-4.2h4.9c-0.1,1.7-0.7,3.4-1.8,4.9
	c-1.1,1.6-2.6,2.8-4.4,3.7c-1.8,0.9-3.8,1.4-5.8,1.4c-4.1,0-7.4-1.4-9.8-4.1c-2.4-2.7-3.6-6.5-3.6-11.2v-0.9c0-2.9,0.5-5.5,1.6-7.8
	c1.1-2.3,2.6-4,4.6-5.3c2-1.3,4.4-1.9,7.1-1.9c3.4,0,6.2,1,8.4,3c2.2,2,3.4,4.6,3.6,7.9h-4.9c-0.1-1.9-0.9-3.5-2.2-4.8
	c-1.3-1.2-3-1.9-4.9-1.9c-2.6,0-4.6,0.9-6.1,2.8c-1.4,1.9-2.2,4.6-2.2,8.2v1c0,3.5,0.7,6.1,2.1,8C38,38.1,40.1,39.1,42.7,39.1
	L42.7,39.1z"/>
<path class="st1" d="M91.2,24.4c0,3.7-0.6,6.8-1.7,9.5c-1.2,2.7-2.8,4.8-4.9,6.4l6.6,5.2l-4.4,3.9l-8.2-6.5
	c-1.1,0.2-2.2,0.3-3.5,0.3c-3.1,0-5.9-0.8-8.4-2.3c-2.5-1.5-4.3-3.7-5.7-6.6c-1.3-2.8-2-6.1-2-9.8v-2.2c0-3.8,0.7-7.1,2-10
	c1.3-2.9,3.2-5.1,5.7-6.6c2.4-1.5,5.2-2.3,8.4-2.3c3.1,0,6,0.8,8.4,2.3c2.4,1.5,4.3,3.7,5.6,6.5s2,6.2,2,9.9L91.2,24.4L91.2,24.4z
	 M84.5,22.4c0-4.4-0.8-7.7-2.4-9.9c-1.6-2.2-3.9-3.4-6.9-3.4s-5.2,1.1-6.8,3.4c-1.6,2.3-2.5,5.5-2.5,9.6v2.3c0,4.2,0.8,7.5,2.5,9.8
	c1.6,2.4,3.9,3.5,6.9,3.5s5.3-1.1,6.9-3.4c1.6-2.3,2.4-5.6,2.4-9.9L84.5,22.4L84.5,22.4z"/>
<path class="st2" d="M115.8,39.8c-2,2.3-4.8,3.5-8.5,3.5c-3.3,0-5.7-1-7.4-2.9c-1.7-1.9-2.5-4.7-2.5-8.3V12.6h6.8V32
	c0,3.8,1.6,5.7,4.8,5.7s5.5-1.2,6.6-3.5V12.6h6.8v30.1H116L115.8,39.8L115.8,39.8z"/>
<path class="st2" d="M155.7,28c0,4.7-1,8.4-3.1,11.2c-2.1,2.8-5,4.1-8.6,4.1s-6.3-1.3-8.2-3.8l-0.3,3.3h-6.1V0h6.8v15.5
	c1.9-2.3,4.6-3.4,7.9-3.4c3.7,0,6.6,1.4,8.6,4.1c2.1,2.7,3.1,6.5,3.1,11.4L155.7,28L155.7,28z M148.9,27.4c0-3.3-0.6-5.7-1.7-7.3
	c-1.1-1.6-2.8-2.4-5-2.4c-2.9,0-5,1.3-6.2,3.8v12.4c1.2,2.6,3.3,3.9,6.2,3.9c2.1,0,3.7-0.8,4.9-2.4s1.7-4,1.8-7.1V27.4L148.9,27.4z"
	/>
<path class="st2" d="M168.4,42.7h-6.8V12.6h6.8V42.7z"/>
<path class="st2" d="M184.4,5.3v7.3h5.3v5h-5.3v16.8c0,1.1,0.2,2,0.7,2.5c0.5,0.5,1.3,0.8,2.4,0.8c0.8,0,1.6-0.1,2.4-0.3v5.2
	c-1.5,0.4-3,0.6-4.4,0.6c-5.2,0-7.8-2.9-7.8-8.6v-17h-4.9v-5h4.9V5.3L184.4,5.3L184.4,5.3z"/>
<path class="st2" d="M211.7,34.5c0-1.2-0.5-2.1-1.5-2.8c-1-0.6-2.6-1.2-4.9-1.7c-2.3-0.5-4.2-1.1-5.8-1.8c-3.4-1.6-5.1-4-5.1-7.1
	c0-2.6,1.1-4.8,3.3-6.5s5-2.6,8.3-2.6c3.6,0,6.5,0.9,8.7,2.7c2.2,1.8,3.3,4.1,3.3,6.9h-6.8c0-1.3-0.5-2.4-1.4-3.2
	c-1-0.9-2.2-1.3-3.8-1.3c-1.5,0-2.7,0.3-3.6,1c-0.9,0.7-1.4,1.6-1.4,2.8c0,1,0.4,1.8,1.3,2.4c0.9,0.6,2.6,1.2,5.3,1.7
	c2.6,0.6,4.7,1.3,6.2,2.1c1.5,0.8,2.6,1.8,3.4,2.9c0.7,1.1,1.1,2.5,1.1,4.1c0,2.7-1.1,4.9-3.4,6.6c-2.2,1.7-5.2,2.5-8.8,2.5
	c-2.5,0-4.7-0.4-6.6-1.3c-1.9-0.9-3.4-2.1-4.5-3.7c-1.1-1.6-1.6-3.2-1.6-5h6.6c0.1,1.6,0.7,2.8,1.8,3.7s2.6,1.3,4.4,1.3
	c1.8,0,3.1-0.3,4.1-1C211.2,36.5,211.7,35.6,211.7,34.5L211.7,34.5z"/>
<g>
	<rect x="228" y="14.3" class="st3" width="27.3" height="27.3"/>
	<path class="st2" d="M256.4,42.7h-29.5V13.2h29.5V42.7z M229.1,40.5h25.1V15.4h-25.1V40.5z"/>
</g>
<line class="st4" x1="228" y1="41.6" x2="255.3" y2="14.3"/>
<line class="st4" x1="228" y1="14.3" x2="255.3" y2="41.6"/>
<g>
	<circle class="st3" cx="165.1" cy="5.1" r="3.9"/>
	<path class="st2" d="M165.1,10.1c-2.8,0-5-2.2-5-5s2.2-5,5-5c2.8,0,5,2.2,5,5S167.8,10.1,165.1,10.1z M165.1,2.3
		c-1.5,0-2.8,1.2-2.8,2.8s1.2,2.8,2.8,2.8c1.5,0,2.8-1.2,2.8-2.8S166.6,2.3,165.1,2.3z"/>
</g>
<rect x="255.7" y="25.8" class="st2" width="31.6" height="4.4"/>
<g>
	<circle class="st3" cx="291.7" cy="28" r="4.3"/>
	<path class="st2" d="M291.7,33.4c-3,0-5.4-2.4-5.4-5.4s2.4-5.4,5.4-5.4s5.4,2.4,5.4,5.4S294.7,33.4,291.7,33.4z M291.7,24.8
		c-1.8,0-3.2,1.4-3.2,3.2s1.4,3.2,3.2,3.2s3.2-1.4,3.2-3.2S293.5,24.8,291.7,24.8z"/>
</g>
</svg>
